<svg viewBox="0 0 512 512" xmlns="http://www.w3.org/2000/svg">
  <defs>
    <linearGradient id="brass" x1="0%" y1="0%" x2="100%" y2="100%">
      <stop offset="0%" stop-color="#f0d27a"/>
      <stop offset="45%" stop-color="#c9a227"/>
      <stop offset="100%" stop-color="#6e5518"/>
    </linearGradient>
    <radialGradient id="face" cx="35%" cy="30%" r="75%">
      <stop offset="0%" stop-color="#3a2e12"/>
      <stop offset="55%" stop-color="#171016"/>
      <stop offset="100%" stop-color="#0b090b"/>
    </radialGradient>
    <radialGradient id="bg" cx="50%" cy="35%" r="80%">
      <stop offset="0%" stop-color="#231b24"/>
      <stop offset="100%" stop-color="#0c0a0d"/>
    </radialGradient>
  </defs>

  <rect width="512" height="512" fill="url(#bg)"/>

  <circle cx="256" cy="256" r="200" fill="url(#brass)"/>
  <circle cx="256" cy="256" r="168" fill="url(#face)" stroke="#0b090b" stroke-width="2"/>

  <g stroke="#d8b74a" stroke-width="7" stroke-linecap="round">
    <line x1="256" y1="106" x2="256" y2="126" transform="rotate(0 256 256)"/>
    <line x1="256" y1="106" x2="256" y2="126" transform="rotate(45 256 256)"/>
    <line x1="256" y1="106" x2="256" y2="126" transform="rotate(90 256 256)"/>
    <line x1="256" y1="106" x2="256" y2="126" transform="rotate(135 256 256)"/>
    <line x1="256" y1="106" x2="256" y2="126" transform="rotate(180 256 256)"/>
    <line x1="256" y1="106" x2="256" y2="126" transform="rotate(225 256 256)"/>
    <line x1="256" y1="106" x2="256" y2="126" transform="rotate(270 256 256)"/>
    <line x1="256" y1="106" x2="256" y2="126" transform="rotate(315 256 256)"/>
  </g>

  <line x1="256" y1="256" x2="341" y2="135" stroke="#ff2fb0" stroke-width="18" stroke-linecap="round" opacity="0.32"/>
  <line x1="256" y1="256" x2="239" y2="281" stroke="#ff2fb0" stroke-width="18" stroke-linecap="round" opacity="0.32"/>
  <line x1="256" y1="256" x2="341" y2="135" stroke="#ff2fb0" stroke-width="8" stroke-linecap="round"/>
  <line x1="256" y1="256" x2="239" y2="281" stroke="#ff2fb0" stroke-width="8" stroke-linecap="round"/>
  <line x1="256" y1="256" x2="337" y2="141" stroke="#ffb6e6" stroke-width="3" stroke-linecap="round"/>

  <circle cx="256" cy="256" r="20" fill="url(#brass)" stroke="#0b090b" stroke-width="3"/>
  <circle cx="256" cy="256" r="7" fill="#3a2e12"/>
</svg>
